HIERARCHY
ROOT newVegas:Hips
{
	OFFSET 0.000000 96.479958 0.000000
	CHANNELS 6 Xposition Yposition Zposition Xrotation Yrotation Zrotation
	JOINT newVegas:Pelvis
	{
		OFFSET 0.000000 0.000000 0.000000
		CHANNELS 3 Xrotation Yrotation Zrotation
		JOINT newVegas:LeftUpLeg
		{
			OFFSET 18.735201 -5.666702 -4.541200
			CHANNELS 3 Xrotation Yrotation Zrotation
			JOINT newVegas:LeftLeg
			{
				OFFSET -0.021200 -31.938179 0.493100
				CHANNELS 3 Xrotation Yrotation Zrotation
				JOINT newVegas:LeftFoot
				{
					OFFSET 0.021200 -31.938179 -4.336299
					CHANNELS 3 Xrotation Yrotation Zrotation
					JOINT newVegas:LeftToeBase
					{
						OFFSET 0.943001 -26.722000 15.023500
						CHANNELS 3 Xrotation Yrotation Zrotation
						End Site
						{
							OFFSET 0.000000 30.670183 0.000000
						}
					}
				}
				JOINT newVegas:Left_PantLeg
				{
					OFFSET 0.663870 -9.044666 -1.108900
					CHANNELS 3 Xrotation Yrotation Zrotation
					End Site
					{
						OFFSET 1.415995 20.635357 0.000000
					}
				}
			}
		}
		JOINT newVegas:RightUpLeg
		{
			OFFSET -18.735201 -5.666702 -4.541200
			CHANNELS 3 Xrotation Yrotation Zrotation
			JOINT newVegas:RightLeg
			{
				OFFSET 0.018946 -31.938133 0.493100
				CHANNELS 3 Xrotation Yrotation Zrotation
				JOINT newVegas:RightFoot
				{
					OFFSET -0.018946 -31.938126 -4.336299
					CHANNELS 3 Xrotation Yrotation Zrotation
					JOINT newVegas:RightToeBase
					{
						OFFSET -0.943001 -26.722004 15.023500
						CHANNELS 3 Xrotation Yrotation Zrotation
						End Site
						{
							OFFSET 0.000000 30.670187 0.000000
						}
					}
				}
				JOINT newVegas:Right_PantLeg
				{
					OFFSET -0.661674 -9.044716 -1.108900
					CHANNELS 3 Xrotation Yrotation Zrotation
					End Site
					{
						OFFSET -1.415958 20.635269 0.000000
					}
				}
			}
		}
	}
	JOINT newVegas:Spine
	{
		OFFSET 0.000000 10.199997 -0.299500
		CHANNELS 3 Xrotation Yrotation Zrotation
		JOINT newVegas:Spine1
		{
			OFFSET 0.000000 11.900002 -1.516600
			CHANNELS 3 Xrotation Yrotation Zrotation
			JOINT newVegas:Spine2
			{
				OFFSET 0.000000 13.600006 -2.842500
				CHANNELS 3 Xrotation Yrotation Zrotation
				JOINT newVegas:Neck
				{
					OFFSET 0.000000 9.624100 -2.890100
					CHANNELS 3 Xrotation Yrotation Zrotation
					JOINT newVegas:Head
					{
						OFFSET 0.000000 14.068802 -1.351900
						CHANNELS 3 Xrotation Yrotation Zrotation
						JOINT newVegas:Hair_Back
						{
							OFFSET 0.000000 3.231903 -17.524799
							CHANNELS 3 Xrotation Yrotation Zrotation
							End Site
							{
								OFFSET 0.000000 19.849884 0.000000
							}
						}
						JOINT newVegas:Hair_Front
						{
							OFFSET 0.000000 31.260406 4.573800
							CHANNELS 3 Xrotation Yrotation Zrotation
							JOINT newVegas:Hair_Front1
							{
								OFFSET 0.000000 2.284103 11.993300
								CHANNELS 3 Xrotation Yrotation Zrotation
								JOINT newVegas:Hair_Front2
								{
									OFFSET 0.000000 2.284103 11.993300
									CHANNELS 3 Xrotation Yrotation Zrotation
									End Site
									{
										OFFSET 0.000000 12.208862 0.000000
									}
								}
							}
						}
						JOINT newVegas:Jowel
						{
							OFFSET 0.000000 -7.458206 6.864100
							CHANNELS 3 Xrotation Yrotation Zrotation
							End Site
							{
								OFFSET 0.000000 19.849884 0.000000
							}
						}
					}
				}
				JOINT newVegas:LeftShoulder
				{
					OFFSET 15.263000 10.923401 -0.547700
					CHANNELS 3 Xrotation Yrotation Zrotation
					JOINT newVegas:LeftArm
					{
						OFFSET 25.438599 -2.830597 -13.032500
						CHANNELS 3 Xrotation Yrotation Zrotation
						JOINT newVegas:LeftForeArm
						{
							OFFSET 29.960503 0.000000 0.000000
							CHANNELS 3 Xrotation Yrotation Zrotation
							JOINT newVegas:LeftHand
							{
								OFFSET 27.849251 0.000000 0.000000
								CHANNELS 3 Xrotation Yrotation Zrotation
								JOINT newVegas:LeftHandThumb1
								{
									OFFSET 4.487587 -3.305161 6.305391
									CHANNELS 3 Xrotation Yrotation Zrotation
									JOINT newVegas:LeftHandThumb2
									{
										OFFSET 5.480453 -3.164139 3.164143
										CHANNELS 3 Xrotation Yrotation Zrotation
										JOINT newVegas:LeftHandThumb3
										{
											OFFSET 5.159721 -2.978973 2.978967
											CHANNELS 3 Xrotation Yrotation Zrotation
											End Site
											{
												OFFSET 2.494507 5.926697 1.738678
											}
										}
									}
								}
								JOINT newVegas:LeftHandIndex1
								{
									OFFSET 18.578728 -0.527832 5.208049
									CHANNELS 3 Xrotation Yrotation Zrotation
									JOINT newVegas:LeftHandIndex2
									{
										OFFSET 3.192009 0.000000 0.000000
										CHANNELS 3 Xrotation Yrotation Zrotation
										JOINT newVegas:LeftHandIndex3
										{
											OFFSET 3.835129 0.000000 0.000000
											CHANNELS 3 Xrotation Yrotation Zrotation
											End Site
											{
												OFFSET -0.034599 3.816971 0.371180
											}
										}
									}
								}
								JOINT newVegas:LeftHandMiddle1
								{
									OFFSET 18.476105 0.000000 0.000000
									CHANNELS 3 Xrotation Yrotation Zrotation
									JOINT newVegas:LeftHandMiddle2
									{
										OFFSET 3.324875 0.000000 0.000000
										CHANNELS 3 Xrotation Yrotation Zrotation
										JOINT newVegas:LeftHandMiddle3
										{
											OFFSET 4.596550 0.000000 0.000000
											CHANNELS 3 Xrotation Yrotation Zrotation
											End Site
											{
												OFFSET 0.057701 4.578827 0.399218
											}
										}
									}
								}
								JOINT newVegas:LeftHandRing1
								{
									OFFSET 17.732719 0.121887 -4.201567
									CHANNELS 3 Xrotation Yrotation Zrotation
									JOINT newVegas:LeftHandRing2
									{
										OFFSET 2.733170 0.000000 0.000000
										CHANNELS 3 Xrotation Yrotation Zrotation
										JOINT newVegas:LeftHandRing3
										{
											OFFSET 3.178268 0.000000 0.000000
											CHANNELS 3 Xrotation Yrotation Zrotation
											End Site
											{
												OFFSET 0.119102 3.170624 0.185394
											}
										}
									}
								}
								JOINT newVegas:LeftHandPinky1
								{
									OFFSET 15.989624 -0.606689 -7.535461
									CHANNELS 3 Xrotation Yrotation Zrotation
									JOINT newVegas:LeftHandPinky2
									{
										OFFSET 2.538986 0.000000 0.000000
										CHANNELS 3 Xrotation Yrotation Zrotation
										JOINT newVegas:LeftHandPinky3
										{
											OFFSET 2.593102 0.000000 0.000000
											CHANNELS 3 Xrotation Yrotation Zrotation
											End Site
											{
												OFFSET -0.150902 2.584198 0.152708
											}
										}
									}
								}
							}
							JOINT newVegas:Left_Sleeve
							{
								OFFSET 0.267448 -0.649796 0.577675
								CHANNELS 3 Xrotation Yrotation Zrotation
								End Site
								{
									OFFSET 0.000000 15.991241 0.000000
								}
							}
							JOINT newVegas:Left_CapeC
							{
								OFFSET 15.715958 -8.608795 -6.935905
								CHANNELS 3 Xrotation Yrotation Zrotation
								JOINT newVegas:Left_CapeC1
								{
									OFFSET 0.000000 -8.688499 0.000000
									CHANNELS 3 Xrotation Yrotation Zrotation
									End Site
									{
										OFFSET 0.000000 8.688499 0.000000
									}
								}
							}
						}
						JOINT newVegas:Left_CapeB
						{
							OFFSET 26.118385 -8.608795 -7.079235
							CHANNELS 3 Xrotation Yrotation Zrotation
							JOINT newVegas:Left_CapeB1
							{
								OFFSET 0.000000 -8.688499 0.000000
								CHANNELS 3 Xrotation Yrotation Zrotation
								End Site
								{
									OFFSET 0.000000 8.688499 0.000000
								}
							}
						}
						JOINT newVegas:Left_CapeA
						{
							OFFSET 5.115639 -8.608795 -10.395809
							CHANNELS 3 Xrotation Yrotation Zrotation
							JOINT newVegas:Left_CapeA1
							{
								OFFSET 0.000000 -8.688499 0.000000
								CHANNELS 3 Xrotation Yrotation Zrotation
								End Site
								{
									OFFSET 0.000000 8.688499 0.000000
								}
							}
						}
					}
				}
				JOINT newVegas:RightShoulder
				{
					OFFSET -15.263000 10.923401 -0.547700
					CHANNELS 3 Xrotation Yrotation Zrotation
					JOINT newVegas:RightArm
					{
						OFFSET -25.438599 -2.830597 -13.032500
						CHANNELS 3 Xrotation Yrotation Zrotation
						JOINT newVegas:RightForeArm
						{
							OFFSET -29.960503 0.000000 0.000000
							CHANNELS 3 Xrotation Yrotation Zrotation
							JOINT newVegas:RightHand
							{
								OFFSET -27.849251 0.000000 0.000000
								CHANNELS 3 Xrotation Yrotation Zrotation
								JOINT newVegas:RightHandThumb1
								{
									OFFSET -4.487587 -3.305161 6.305391
									CHANNELS 3 Xrotation Yrotation Zrotation
									JOINT newVegas:RightHandThumb2
									{
										OFFSET -5.480453 -3.164139 3.164143
										CHANNELS 3 Xrotation Yrotation Zrotation
										JOINT newVegas:RightHandThumb3
										{
											OFFSET -5.159721 -2.978973 2.978967
											CHANNELS 3 Xrotation Yrotation Zrotation
											End Site
											{
												OFFSET -2.494507 5.926697 1.738678
											}
										}
									}
								}
								JOINT newVegas:RightHandIndex1
								{
									OFFSET -18.578728 -0.527832 5.208049
									CHANNELS 3 Xrotation Yrotation Zrotation
									JOINT newVegas:RightHandIndex2
									{
										OFFSET -3.192009 0.000000 0.000000
										CHANNELS 3 Xrotation Yrotation Zrotation
										JOINT newVegas:RightHandIndex3
										{
											OFFSET -3.835129 0.000000 0.000000
											CHANNELS 3 Xrotation Yrotation Zrotation
											End Site
											{
												OFFSET 0.034599 3.816971 0.371180
											}
										}
									}
								}
								JOINT newVegas:RightHandMiddle1
								{
									OFFSET -18.476105 0.000000 0.000000
									CHANNELS 3 Xrotation Yrotation Zrotation
									JOINT newVegas:RightHandMiddle2
									{
										OFFSET -3.324875 0.000000 0.000000
										CHANNELS 3 Xrotation Yrotation Zrotation
										JOINT newVegas:RightHandMiddle3
										{
											OFFSET -4.596550 0.000000 0.000000
											CHANNELS 3 Xrotation Yrotation Zrotation
											End Site
											{
												OFFSET -0.057701 4.578827 0.399218
											}
										}
									}
								}
								JOINT newVegas:RightHandRing1
								{
									OFFSET -17.732719 0.121887 -4.201567
									CHANNELS 3 Xrotation Yrotation Zrotation
									JOINT newVegas:RightHandRing2
									{
										OFFSET -2.733170 0.000000 0.000000
										CHANNELS 3 Xrotation Yrotation Zrotation
										JOINT newVegas:RightHandRing3
										{
											OFFSET -3.178268 0.000000 0.000000
											CHANNELS 3 Xrotation Yrotation Zrotation
											End Site
											{
												OFFSET -0.119102 3.170624 0.185394
											}
										}
									}
								}
								JOINT newVegas:RightHandPinky1
								{
									OFFSET -15.989624 -0.606689 -7.535461
									CHANNELS 3 Xrotation Yrotation Zrotation
									JOINT newVegas:RightHandPinky2
									{
										OFFSET -2.538986 0.000000 0.000000
										CHANNELS 3 Xrotation Yrotation Zrotation
										JOINT newVegas:RightHandPinky3
										{
											OFFSET -2.593102 0.000000 0.000000
											CHANNELS 3 Xrotation Yrotation Zrotation
											End Site
											{
												OFFSET 0.150902 2.584198 0.152708
											}
										}
									}
								}
							}
							JOINT newVegas:Right_CapeC
							{
								OFFSET -15.715958 -8.608795 -6.935905
								CHANNELS 3 Xrotation Yrotation Zrotation
								JOINT newVegas:Right_CapeC1
								{
									OFFSET 0.000000 -8.688499 0.000000
									CHANNELS 3 Xrotation Yrotation Zrotation
									End Site
									{
										OFFSET 0.000000 8.688499 0.000000
									}
								}
							}
							JOINT newVegas:Right_Sleeve
							{
								OFFSET -0.267448 -0.649994 0.577675
								CHANNELS 3 Xrotation Yrotation Zrotation
								End Site
								{
									OFFSET 0.000000 15.991302 0.000000
								}
							}
						}
						JOINT newVegas:Right_CapeA
						{
							OFFSET -5.115540 -8.608795 -10.395824
							CHANNELS 3 Xrotation Yrotation Zrotation
							JOINT newVegas:Right_CapeA1
							{
								OFFSET 0.000000 -8.688499 0.000000
								CHANNELS 3 Xrotation Yrotation Zrotation
								End Site
								{
									OFFSET 0.000000 8.688499 0.000000
								}
							}
						}
						JOINT newVegas:Right_CapeB
						{
							OFFSET -26.118187 -8.608795 -7.079266
							CHANNELS 3 Xrotation Yrotation Zrotation
							JOINT newVegas:Right_CapeB1
							{
								OFFSET 0.000000 -8.688499 0.000000
								CHANNELS 3 Xrotation Yrotation Zrotation
								End Site
								{
									OFFSET 0.000000 8.688499 0.000000
								}
							}
						}
					}
				}
				JOINT newVegas:Left_Collar
				{
					OFFSET 18.625099 8.655502 8.828100
					CHANNELS 3 Xrotation Yrotation Zrotation
					JOINT newVegas:Left_Collar1
					{
						OFFSET 14.783401 10.540405 -1.259500
						CHANNELS 3 Xrotation Yrotation Zrotation
						End Site
						{
							OFFSET 0.000000 18.199875 0.000000
						}
					}
				}
				JOINT newVegas:Collar_Back
				{
					OFFSET 0.000000 15.630707 -20.132601
					CHANNELS 3 Xrotation Yrotation Zrotation
					End Site
					{
						OFFSET 0.000000 22.523010 0.000000
					}
				}
				JOINT newVegas:Left_Peck
				{
					OFFSET 17.239599 -5.132599 25.482599
					CHANNELS 3 Xrotation Yrotation Zrotation
					End Site
					{
						OFFSET 0.000000 22.523010 0.000000
					}
				}
				JOINT newVegas:Right_Peck
				{
					OFFSET -17.239599 -5.132202 25.482599
					CHANNELS 3 Xrotation Yrotation Zrotation
					End Site
					{
						OFFSET 0.000000 22.523010 0.000000
					}
				}
				JOINT newVegas:Right_Collar
				{
					OFFSET -18.625099 8.655792 8.828100
					CHANNELS 3 Xrotation Yrotation Zrotation
					JOINT newVegas:Right_Collar1
					{
						OFFSET -14.783401 10.539993 -1.259500
						CHANNELS 3 Xrotation Yrotation Zrotation
						End Site
						{
							OFFSET 0.000000 18.199631 0.000000
						}
					}
				}
			}
		}
		JOINT newVegas:Belly
		{
			OFFSET 0.000000 -6.540398 9.014299
			CHANNELS 3 Xrotation Yrotation Zrotation
			End Site
			{
				OFFSET 0.000000 11.566666 0.000000
			}
		}
	}
	JOINT newVegas:ElvisFacialAnim_Joint
	{
		OFFSET 1.000000 -95.330101 -8.825800
		CHANNELS 3 Xrotation Yrotation Zrotation
		End Site
		{
			OFFSET 0.000000 35.315800 0.000000
		}
	}
}
MOTION
Frames: 4
Frame Time: 0.033333
-55.807404 70.388542 151.841614 25.463048 -7.275671 9.269883 -0.000000 -0.000000 -0.000000 -88.025743 -8.819464 1.272169 89.511719 15.792676 3.431918 30.554544 0.463570 4.654739 -0.000002 -0.000000 -0.000001 0.000000 0.000000 0.000002 -100.962586 -5.081662 -12.647914 81.891441 -23.613301 11.201309 -8.599230 1.670534 -14.000074 0.000000 -0.000003 0.000000 -0.000001 0.000004 -0.000002 23.156650 1.464351 1.618818 14.338355 -0.840876 0.859337 13.610282 -0.944600 0.897548 -1.368007 -1.254550 0.052962 -1.368025 -1.254546 0.052956 -0.000001 0.000000 -0.000000 -1.368161 -1.254544 0.052958 -1.367818 -1.254553 0.052965 0.000000 -0.000001 0.000002 -0.000001 0.000000 -0.000000 -1.891261 6.897981 14.054964 -2.052154 -30.730797 -68.517097 -2.455168 -30.098755 -1.805084 -19.013462 -19.863174 -19.387321 -9.331545 3.471379 -7.771898 -3.526424 5.992580 -11.731759 0.000004 0.000000 -0.000003 2.950641 -12.213428 7.303448 -0.001893 -0.013104 -14.886855 -0.000002 -0.000001 -0.000000 -0.428357 -3.917225 -6.247945 -0.001119 -0.009766 -15.259833 -0.000001 -0.000001 0.000000 3.582743 12.303595 -16.370784 -0.016410 -0.033073 -52.623507 0.000001 0.000001 0.000003 0.000686 20.812471 -16.406931 -0.017064 -0.032015 -51.783861 0.000000 -0.000000 0.000001 0.000001 0.000002 0.000000 0.000001 0.000002 0.000000 0.000000 0.000002 0.000000 0.000000 -0.000002 -0.000001 0.000001 -0.000003 -0.000003 0.000000 -0.000002 -0.000001 0.000000 -0.000002 -0.000002 -9.363366 4.770117 -18.022719 -65.279260 -12.622874 42.436064 -3.513659 67.302013 3.456113 51.867903 22.740644 -41.634371 -4.453588 -7.293489 20.381127 0.000560 -8.684415 0.000689 0.000002 0.000000 0.000001 -0.000519 -0.006675 -8.932492 -0.000515 0.007218 6.265795 0.000000 0.000000 -0.000000 -0.000040 0.002629 3.005847 -0.000322 0.004849 6.344391 -0.000000 -0.000000 -0.000001 2.546348 -5.987558 23.063910 -0.002732 0.015384 21.773009 -0.000000 0.000001 -0.000001 8.673214 -16.457455 33.264520 -0.008743 0.026298 37.071538 0.000000 0.000003 0.000002 0.000001 0.000003 -0.000002 0.000003 0.000001 -0.000000 0.000001 0.000002 -0.000003 0.000000 -0.000001 0.000006 0.000000 -0.000001 0.000006 0.000000 -0.000001 0.000006 0.000001 -0.000001 0.000007 -0.000002 0.000000 0.000001 -0.000002 0.000000 0.000001 -0.000002 0.000000 0.000001 -0.000002 0.000000 0.000001 -0.000002 0.000000 0.000001 -0.000002 0.000000 0.000001 -0.000002 0.000000 0.000001 0.000001 0.000000 -0.000000 -0.000000 -0.000000 -0.000000 
-58.937912 72.037621 155.322906 26.279867 -9.181937 10.877336 0.000001 -0.000000 -0.000000 -92.875533 -7.786998 0.506535 89.765870 17.808163 3.089826 17.907696 -0.295384 3.258110 0.000005 0.000000 0.000001 0.000002 0.000000 0.000000 -97.114587 -7.133642 -9.433210 81.776632 -23.674192 10.041460 -13.263213 2.053973 -13.135550 -0.000000 0.000001 0.000000 0.000002 0.000002 -0.000001 23.147866 1.738327 0.652779 14.388861 -0.346571 0.493102 13.671056 -0.447938 0.546013 -1.500721 -1.249270 -0.090708 -1.500782 -1.249271 -0.090736 -0.000001 -0.000000 -0.000001 -1.500662 -1.249289 -0.090712 -1.500814 -1.249248 -0.090718 0.000000 0.000000 -0.000001 -0.000001 -0.000000 0.000000 -1.833344 7.353165 13.724235 -4.189081 -29.937921 -69.206161 -1.868409 -29.617705 -1.556465 -19.019879 -18.707705 -19.846313 -9.331547 3.471383 -7.771902 -3.526424 5.992578 -11.731762 -0.000001 -0.000002 -0.000003 2.950640 -12.213428 7.303446 -0.001897 -0.013101 -14.886860 -0.000003 -0.000001 0.000001 -0.428363 -3.917224 -6.247944 -0.001113 -0.009766 -15.259826 -0.000005 -0.000002 -0.000001 3.582742 12.303602 -16.370785 -0.016410 -0.033075 -52.623507 0.000002 0.000001 0.000001 0.000682 20.812478 -16.406937 -0.017063 -0.032020 -51.783861 -0.000001 -0.000003 -0.000002 0.000000 -0.000006 -0.000000 0.000000 -0.000006 -0.000000 -0.000001 -0.000006 -0.000000 -0.000000 0.000003 -0.000001 0.000001 0.000003 -0.000001 -0.000000 0.000003 -0.000001 -0.000000 0.000003 -0.000002 -9.358165 4.956263 -17.915094 -66.509302 -12.326377 42.365102 -2.522607 67.671233 2.624916 52.764724 22.149851 -42.850636 -4.453587 -7.293489 20.381126 0.000562 -8.684418 0.000689 0.000001 -0.000001 0.000001 -0.000519 -0.006675 -8.932492 -0.000516 0.007218 6.265797 -0.000000 0.000000 0.000001 -0.000040 0.002629 3.005845 -0.000323 0.004850 6.344391 -0.000000 0.000000 -0.000000 2.546350 -5.987559 23.063911 -0.002732 0.015384 21.773009 0.000000 0.000001 -0.000002 8.673212 -16.457455 33.264524 -0.008744 0.026298 37.071538 0.000001 0.000003 -0.000001 -0.000000 0.000001 0.000001 -0.000002 0.000002 0.000001 -0.000000 0.000001 0.000001 0.000000 0.000000 0.000002 0.000000 0.000001 0.000004 0.000000 0.000000 0.000002 0.000000 0.000001 0.000005 -0.000001 -0.000000 -0.000001 -0.000001 -0.000000 -0.000001 -0.000001 -0.000000 -0.000001 -0.000001 -0.000000 -0.000001 -0.000001 -0.000000 -0.000001 -0.000001 -0.000000 -0.000001 -0.000001 -0.000000 -0.000001 -0.000000 0.000001 -0.000000 0.000001 -0.000000 -0.000000 
-61.617107 72.785919 158.874832 26.804379 -11.260927 12.184103 -0.000000 -0.000001 -0.000000 -96.938430 -6.986281 0.024706 87.095219 17.359947 2.697998 11.887390 -0.517980 0.130073 0.000001 0.000000 -0.000002 0.000001 0.000000 0.000002 -93.626983 -8.777404 -6.278304 82.833836 -23.887132 8.684632 -18.257567 2.424813 -11.949364 -0.000000 0.000003 -0.000000 0.000003 0.000002 -0.000002 23.098008 2.307739 -0.009956 14.396157 0.011300 0.134725 13.683762 -0.056609 0.191467 -1.498065 -1.254515 -0.206582 -1.498068 -1.254518 -0.206585 -0.000000 0.000000 -0.000001 -1.498065 -1.254517 -0.206588 -1.498102 -1.254513 -0.206590 -0.000000 0.000000 0.000000 -0.000000 0.000000 -0.000000 -1.799597 7.691034 13.545392 -5.705326 -29.337640 -69.909807 -1.218549 -28.919803 -1.381762 -19.040448 -17.661981 -20.437996 -9.331556 3.471374 -7.771901 -3.526422 5.992582 -11.731760 0.000002 -0.000003 0.000001 2.950640 -12.213428 7.303448 -0.001900 -0.013105 -14.886857 -0.000003 -0.000001 0.000000 -0.428360 -3.917226 -6.247945 -0.001117 -0.009767 -15.259828 -0.000001 0.000001 0.000000 3.582735 12.303591 -16.370785 -0.016414 -0.033072 -52.623510 -0.000001 -0.000001 0.000003 0.000684 20.812467 -16.406932 -0.017066 -0.032021 -51.783861 -0.000003 0.000000 -0.000000 -0.000002 0.000001 -0.000001 -0.000002 0.000001 -0.000001 -0.000003 0.000001 -0.000001 -0.000000 0.000000 -0.000001 -0.000000 -0.000000 -0.000002 -0.000000 0.000000 -0.000001 -0.000001 0.000000 -0.000002 -9.352468 5.281331 -17.627077 -67.199342 -12.258129 42.262912 -2.316288 68.378567 2.573286 54.044691 21.698826 -44.463066 -4.453589 -7.293490 20.381127 0.000560 -8.684416 0.000691 0.000002 -0.000001 0.000001 -0.000519 -0.006675 -8.932488 -0.000515 0.007218 6.265800 -0.000000 0.000001 -0.000001 -0.000040 0.002629 3.005847 -0.000323 0.004849 6.344388 0.000001 0.000001 0.000000 2.546347 -5.987559 23.063915 -0.002732 0.015388 21.773009 -0.000001 -0.000001 -0.000002 8.673212 -16.457455 33.264524 -0.008743 0.026299 37.071538 0.000001 0.000001 0.000002 0.000001 0.000003 0.000003 0.000000 0.000001 0.000002 0.000001 0.000002 0.000004 0.000000 0.000000 0.000000 0.000000 0.000000 0.000000 0.000000 0.000000 0.000000 0.000001 0.000000 0.000002 0.000000 0.000001 -0.000001 0.000000 0.000001 -0.000001 0.000000 0.000001 -0.000001 0.000000 0.000001 -0.000001 0.000000 0.000001 -0.000001 0.000000 0.000001 -0.000001 0.000000 0.000001 -0.000001 0.000002 -0.000001 -0.000000 -0.000000 -0.000001 -0.000000 
-64.109314 72.800179 162.719452 26.863976 -13.689306 13.242862 -0.000002 0.000000 -0.000000 -101.072108 -6.048967 -0.407010 82.326435 14.056093 2.182217 12.673469 -0.393621 -3.958637 0.000001 -0.000001 -0.000000 -0.000000 0.000000 -0.000001 -90.180518 -10.196169 -3.157447 85.178572 -24.244124 6.974835 -23.429775 2.665932 -10.074562 0.000000 0.000000 0.000000 -0.000000 -0.000002 0.000004 23.202887 3.201139 -0.567878 14.477747 0.203039 -0.237792 13.764978 0.192741 -0.187588 -1.371660 -1.268318 -0.200305 -1.371639 -1.268322 -0.200308 -0.000003 -0.000001 0.000000 -1.371751 -1.268291 -0.200313 -1.371590 -1.268338 -0.200300 -0.000001 0.000001 -0.000002 -0.000003 -0.000001 0.000001 -1.808718 7.865975 13.600667 -6.471986 -29.031248 -70.584944 -0.582665 -28.043900 -1.331991 -19.075091 -17.071028 -20.936968 -9.331547 3.471377 -7.771896 -3.526419 5.992580 -11.731761 -0.000000 -0.000001 -0.000003 2.950645 -12.213428 7.303450 -0.001893 -0.013104 -14.886857 -0.000006 0.000001 0.000000 -0.428361 -3.917222 -6.247945 -0.001120 -0.009769 -15.259829 0.000002 -0.000002 0.000002 3.582742 12.303596 -16.370785 -0.016412 -0.033072 -52.623510 -0.000002 -0.000002 -0.000000 0.000685 20.812476 -16.406932 -0.017063 -0.032020 -51.783858 -0.000000 0.000000 0.000001 -0.000001 0.000003 0.000004 -0.000001 0.000003 0.000004 -0.000001 0.000003 0.000004 -0.000001 -0.000002 -0.000000 0.000000 -0.000003 -0.000001 -0.000001 -0.000002 -0.000000 -0.000001 -0.000002 -0.000001 -9.349022 5.779413 -17.280918 -67.330741 -12.300704 42.244590 -3.021019 68.915181 3.295660 55.419260 21.145461 -46.217698 -4.453588 -7.293491 20.381131 0.000561 -8.684418 0.000687 0.000002 0.000000 -0.000002 -0.000519 -0.006675 -8.932487 -0.000515 0.007218 6.265803 -0.000000 -0.000000 0.000000 -0.000040 0.002629 3.005850 -0.000323 0.004849 6.344388 0.000001 0.000000 0.000000 2.546350 -5.987559 23.063916 -0.002732 0.015387 21.773012 -0.000000 0.000001 -0.000001 8.673212 -16.457454 33.264527 -0.008746 0.026294 37.071538 0.000001 0.000002 -0.000001 -0.000002 0.000002 0.000001 -0.000006 -0.000000 -0.000002 -0.000002 0.000002 0.000001 -0.000001 0.000000 0.000002 -0.000001 -0.000001 0.000003 -0.000001 0.000000 0.000002 -0.000001 -0.000001 0.000005 -0.000001 0.000001 0.000001 -0.000001 0.000001 0.000001 -0.000001 0.000001 0.000001 -0.000001 0.000001 0.000001 -0.000001 0.000001 0.000001 -0.000001 0.000001 0.000001 -0.000001 0.000001 0.000001 -0.000001 -0.000001 -0.000000 -0.000002 0.000000 -0.000000 
